<svg xmlns="http://www.w3.org/2000/svg" viewBox="0 0 64 64" role="img" aria-label="TikTok">
  <rect width="64" height="64" rx="18" fill="#050505"/>
  <path fill="#25F4EE" d="M40.2 14.5c1.1 6 4.6 9.6 10.2 10v7.4c-3.2.3-6.2-.8-9.8-3.2v14.1c0 17.9-19.5 23.5-27.4 10.7-5.1-8.2-2-22.7 14.4-23.3v7.8c-1 .2-2.1.4-3.1.8-3 1-4.7 2.9-4.2 6.4 1 6.7 13.2 8.7 12.2-4.4V14.5h7.7z"/>
  <path fill="#FE2C55" d="M43.1 17.5c1.7 4.3 4.9 6.8 9.3 7v7.4c-3.2.3-6.2-.8-9.8-3.2v14.1c0 17.9-19.5 23.5-27.4 10.7-2-3.2-2.6-7.5-1.5-11.2 1.8-6.1 7.5-10.7 16.5-10.3v7.8c-1 .2-2.1.4-3.1.8-3 1-4.7 2.9-4.2 6.4.5 3.2 3.5 5.4 6.5 5.1 3.2-.3 6.3-2.9 5.7-10.3V17.5h8z"/>
  <path fill="#fff" d="M40.2 14.5c1.1 6 4.6 9.6 10.2 10v5.5c-3.2.3-6.2-.8-9.8-3.2v14.1c0 17.9-19.5 23.5-27.4 10.7-2-3.2-2.6-7.5-1.5-11.2 2-6.8 8.8-11.8 18.5-10.3v5.9c-1 .2-2.1.4-3.1.8-3 1-4.7 2.9-4.2 6.4 1 6.7 13.2 8.7 12.2-4.4V14.5h5.1z"/>
</svg>
